<?xml version="1.0" encoding="utf-8"?>
<svg id="svg2" viewBox="0 0 100 100" xmlns="http://www.w3.org/2000/svg">
  <desc>Source: openclipart.org/detail/209545</desc>
  <title>Demo - Cherry</title>
  <path d="M 49.19 16.345 L 97.315 38.514 L 49.19 89.128 L 1.066 38.514 L 49.19 16.345 Z M 10.304 42.464 L 25.674 45.371 L 41.044 74.799 L 10.304 42.464 Z M 57.338 74.799 L 88.078 42.464 L 72.708 45.371 L 57.338 74.799 Z M 72.174 41.186 L 87.092 38.365 L 57.251 24.62 L 72.174 41.186 Z M 41.13 24.62 L 11.289 38.365 L 26.207 41.186 L 41.13 24.62 Z M 30.102 45.56 L 47.329 78.533 L 47.329 45.56 L 30.102 45.56 Z M 31.403 41.333 L 47.329 41.333 L 47.329 23.649 L 31.403 41.333 Z M 51.051 23.649 L 51.051 41.333 L 66.981 41.333 L 51.051 23.649 Z M 68.275 45.559 L 51.051 45.559 L 51.051 78.532 L 68.275 45.559 Z" fill-rule="evenodd" style="stroke-width: 1; fill: rgb(27, 89, 6);"/>
</svg>